<svg xmlns="http://www.w3.org/2000/svg" preserveAspectRatio="xMinYMin meet" viewBox="0 0 400 144"><path fill="#AAA" d="M0 0h400v144H0V0z"/><path fill="#FF5" d="M204 16h6v1h1v-1h3v1h1v-1h1v16h-3v-1h-1v1h-3v-1h-1v18h-1v-1h-2v-1h-1v2h-1v-1h-2v-1h-1v-1h1v-1h-1v-1h1v-1h-1v-1h1v-1h-1v-1h1v-1h-1v-1h1v-1h-1v-1h1v-1h-1v-1h1v-1h-1v-1h2v1h1v-1h1V16z"/><path d="M216 16h4v16h-4V16z"/><path fill="#555" d="M220 16h4v16h-4V16z"/><path fill="#AAA" d="M208 17h1v1h-1v-1zM212 17h1v1h-1v-1zM210 18h1v1h-1v-1zM214 18h1v1h-1v-1zM208 19h1v1h-1v-1zM212 19h1v1h-1v-1zM210 20h1v1h-1v-1zM214 20h1v1h-1v-1zM208 21h1v1h-1v-1zM212 21h1v1h-1v-1zM210 22h1v1h-1v-1zM214 22h1v1h-1v-1z"/><path fill="#FFF" d="M72 23h8v16h-8v9h-8v7h8v9h8v16h-4v16h-4v7h-8v9h-3v-1h-1v1h-3v-1h-1v1h-8v-9h-8v-7h1v-1h-1v-1h1v-1h-1v-1h1v-1h-1v-1h1v-1h-1v-1h1v-1h-1v-1h1v-1h-1v-1h1v-1h-1v-1h1v-1h-1v-1h2v1h1v-1h1V64h4V48h8v-9h8v-7h8v-9z"/><path fill="#AAA" d="M208 23h1v1h-1v-1zM212 23h1v1h-1v-1zM210 24h1v1h-1v-1zM214 24h1v1h-1v-1zM208 25h1v1h-1v-1zM212 25h1v1h-1v-1zM210 26h1v1h-1v-1zM214 26h1v1h-1v-1zM208 27h1v1h-1v-1zM212 27h1v1h-1v-1zM210 28h1v1h-1v-1zM214 28h1v1h-1v-1zM208 29h1v1h-1v-1zM212 29h1v1h-1v-1zM210 30h1v1h-1v-1zM214 30h1v1h-1v-1zM208 31h1v1h-1v-1zM212 31h1v1h-1v-1z"/><path fill="#FFF" d="M32 32h2v1h1v-1h3v1h1v-1h5v16h-4v16h-4v16h-4v16h-3v-1h-1v17H16V96h4V80h4V64h4V48h-4v-9h8v-1h1v-1h-1v-1h1v-1h-1v-1h1v-1h-1v-1z"/><path d="M44 32h4v16h-4V32z"/><path fill="#555" d="M48 32h4v16h-4V32z"/><path d="M80 32h4v16H72v-9h8v-7z"/><path fill="#555" d="M84 32h4v16h-4V32z"/><path fill="#55F" d="M112 32h16v7h-16v-7z"/><path fill="#555" d="M139 32h1v1h-1v-1zM143 32h1v1h-1v-1z"/><path fill="#F55" d="M160 32h16v7h-16v-7z"/><path fill="#A50" d="M202 32h1v1h-1v-1zM206 32h1v1h-1v-1zM208 32h4v16h-4V32z"/><path d="M212 32h4v16h-4V32z"/><path fill="#555" d="M216 32h4v17h-1v-1h-3V32z"/><path fill="#5F5" d="M240 32h16v7h-16v-7z"/><path fill="#F5F" d="M288 32h2v1h1v-1h3v1h1v-1h17v7h8v10h-1v-1h-3v1h-1v-1h-3v16h-4V48h-4v-9h-8v9h-3v-1h-1v1h-3v-1h-1v2h-1v-1h-3v1h-1v-1h-3v16h-4V48h-4v-9h16v-1h1v-1h-1v-1h1v-1h-1v-1h1v-1h-1v-1z"/><path fill="#A0A" d="M290 32h1v1h-1v-1zM294 32h1v1h-1v-1z"/><path fill="#5FF" d="M344 32h24v7h-24v-7z"/><path fill="#AAA" d="M36 33h1v1h-1v-1z"/><path fill="#555" d="M137 33h1v1h-1v-1zM141 33h1v1h-1v-1z"/><path fill="#A50" d="M200 33h1v1h-1v-1zM204 33h1v1h-1v-1z"/><path fill="#A0A" d="M288 33h1v1h-1v-1zM292 33h1v1h-1v-1z"/><path fill="#AAA" d="M34 34h1v1h-1v-1zM38 34h1v1h-1v-1z"/><path fill="#555" d="M139 34h1v1h-1v-1zM143 34h1v1h-1v-1z"/><path fill="#A50" d="M202 34h1v1h-1v-1zM206 34h1v1h-1v-1z"/><path fill="#A0A" d="M290 34h1v1h-1v-1zM294 34h1v1h-1v-1z"/><path fill="#AAA" d="M36 35h1v1h-1v-1z"/><path fill="#555" d="M137 35h1v1h-1v-1zM141 35h1v1h-1v-1z"/><path fill="#A50" d="M200 35h1v1h-1v-1zM204 35h1v1h-1v-1z"/><path fill="#A0A" d="M288 35h1v1h-1v-1zM292 35h1v1h-1v-1z"/><path fill="#AAA" d="M34 36h1v1h-1v-1zM38 36h1v1h-1v-1z"/><path fill="#555" d="M139 36h1v1h-1v-1zM143 36h1v1h-1v-1z"/><path fill="#A50" d="M202 36h1v1h-1v-1zM206 36h1v1h-1v-1z"/><path fill="#A0A" d="M290 36h1v1h-1v-1zM294 36h1v1h-1v-1z"/><path fill="#AAA" d="M36 37h1v1h-1v-1z"/><path fill="#555" d="M137 37h1v1h-1v-1zM141 37h1v1h-1v-1z"/><path fill="#A50" d="M200 37h1v1h-1v-1zM204 37h1v1h-1v-1z"/><path fill="#A0A" d="M288 37h1v1h-1v-1zM292 37h1v1h-1v-1z"/><path fill="#AAA" d="M34 38h1v1h-1v-1zM38 38h1v1h-1v-1z"/><path fill="#555" d="M139 38h1v1h-1v-1zM143 38h1v1h-1v-1z"/><path fill="#A50" d="M202 38h1v1h-1v-1zM206 38h1v1h-1v-1z"/><path fill="#A0A" d="M290 38h1v1h-1v-1zM294 38h1v1h-1v-1z"/><path fill="#AAA" d="M32 39h1v1h-1v-1zM36 39h1v1h-1v-1z"/><path fill="#55F" d="M104 39h8v9h-8v-9z"/><path d="M112 39h16v9h-8v7h-8v9h-4v16h-4v16h-8V80h4V64h4V48h8v-9z"/><path fill="#55F" d="M128 39h8v25h-3v-1h-1v1h-3v-1h-1v-1h1v-1h-1v-1h1v-1h-1v-1h1v-1h-1v-1h1v-1h-1v-1h1v-1h-1v-1h1v-1h-1v-1h1v-1h-1V39z"/><path fill="#555" d="M137 39h1v1h-1v-1zM141 39h1v1h-1v-1z"/><path fill="#F55" d="M152 39h8v9h-8v-9z"/><path d="M160 39h16v9h-8v7h-8v9h-4v16h-4v16h-8V80h4V64h4V48h8v-9z"/><path fill="#F55" d="M176 39h8v25h-3v-1h-1v1h-3v-1h-1v-1h1v-1h-1v-1h1v-1h-1v-1h1v-1h-1v-1h1v-1h-1v-1h1v-1h-1v-1h1v-1h-1v-1h1v-1h-1V39z"/><path fill="#A50" d="M200 39h1v1h-1v-1zM204 39h1v1h-1v-1z"/><path fill="#5F5" d="M232 39h8v9h-8v-9z"/><path d="M240 39h16v9h-8v7h-8v9h-4v16h-4v16h-8V80h4V64h4V48h8v-9z"/><path fill="#5F5" d="M256 39h8v25h-3v-1h-1v1h-3v-1h-1v-1h1v-1h-1v-1h1v-1h-1v-1h1v-1h-1v-1h1v-1h-1v-1h1v-1h-1v-1h1v-1h-1v-1h1v-1h-1V39z"/><path fill="#A0A" d="M288 39h1v1h-1v-1zM292 39h1v1h-1v-1z"/><path d="M296 39h8v9h4v16h-4v-9h-8v9h-8V48h8v-9zM320 39h8v9h-4v16h-4V39z"/><path fill="#5FF" d="M336 39h8v9h-8v-9z"/><path d="M344 39h24v9h-16v7h-8v9h-4V48h4v-9z"/><path fill="#5FF" d="M368 39h8v9h-8v-9z"/><path fill="#AAA" d="M34 40h1v1h-1v-1zM38 40h1v1h-1v-1z"/><path fill="#555" d="M139 40h1v1h-1v-1zM143 40h1v1h-1v-1z"/><path fill="#A50" d="M202 40h1v1h-1v-1zM206 40h1v1h-1v-1z"/><path fill="#A0A" d="M290 40h1v1h-1v-1zM294 40h1v1h-1v-1z"/><path fill="#AAA" d="M32 41h1v1h-1v-1zM36 41h1v1h-1v-1z"/><path fill="#555" d="M137 41h1v1h-1v-1zM141 41h1v1h-1v-1z"/><path fill="#A50" d="M200 41h1v1h-1v-1zM204 41h1v1h-1v-1z"/><path fill="#A0A" d="M288 41h1v1h-1v-1zM292 41h1v1h-1v-1z"/><path fill="#AAA" d="M34 42h1v1h-1v-1zM38 42h1v1h-1v-1z"/><path fill="#555" d="M139 42h1v1h-1v-1zM143 42h1v1h-1v-1z"/><path fill="#A50" d="M202 42h1v1h-1v-1zM206 42h1v1h-1v-1z"/><path fill="#A0A" d="M290 42h1v1h-1v-1zM294 42h1v1h-1v-1z"/><path fill="#AAA" d="M32 43h1v1h-1v-1zM36 43h1v1h-1v-1z"/><path fill="#555" d="M137 43h1v1h-1v-1zM141 43h1v1h-1v-1z"/><path fill="#A50" d="M200 43h1v1h-1v-1zM204 43h1v1h-1v-1z"/><path fill="#A0A" d="M288 43h1v1h-1v-1zM292 43h1v1h-1v-1z"/><path fill="#AAA" d="M34 44h1v1h-1v-1zM38 44h1v1h-1v-1z"/><path fill="#555" d="M139 44h1v1h-1v-1zM143 44h1v1h-1v-1z"/><path fill="#A50" d="M202 44h1v1h-1v-1zM206 44h1v1h-1v-1z"/><path fill="#A0A" d="M290 44h1v1h-1v-1zM294 44h1v1h-1v-1z"/><path fill="#AAA" d="M32 45h1v1h-1v-1zM36 45h1v1h-1v-1z"/><path fill="#555" d="M137 45h1v1h-1v-1zM141 45h1v1h-1v-1z"/><path fill="#A50" d="M200 45h1v1h-1v-1zM204 45h1v1h-1v-1z"/><path fill="#A0A" d="M288 45h1v1h-1v-1zM292 45h1v1h-1v-1z"/><path fill="#AAA" d="M34 46h1v1h-1v-1zM38 46h1v1h-1v-1z"/><path fill="#555" d="M139 46h1v1h-1v-1zM143 46h1v1h-1v-1z"/><path fill="#A50" d="M202 46h1v1h-1v-1zM206 46h1v1h-1v-1z"/><path fill="#A0A" d="M290 46h1v1h-1v-1zM294 46h1v1h-1v-1z"/><path fill="#AAA" d="M32 47h1v1h-1v-1zM36 47h1v1h-1v-1z"/><path fill="#555" d="M137 47h1v1h-1v-1zM141 47h1v1h2v16h-4V48h1v-1z"/><path fill="#A50" d="M200 47h1v1h2v1h1v-2h1v1h2v1h1v1h-1v1h1v1h-1v1h1v1h-1v1h1v1h-1v1h1v1h-1v1h1v1h-1v1h1v1h-1v1h1v1h-2v-1h-1v1h-1v16h-5v1h1v1h-1v1h1v1h-1v1h1v1h-1v1h1v1h-1v1h1v1h-1v1h1v1h-1v1h1v1h-1v1h1v1h-2v-1h-1v1h-1v16h-4v7h-8V96h8V80h3v1h1V64h4V47z"/><path fill="#A0A" d="M288 47h1v1h-1v-1zM292 47h1v1h-1v-1z"/><path d="M40 48h4v16h-4V48z"/><path fill="#555" d="M44 48h4v16h-4V48z"/><path d="M64 48h8v7h-8v-7z"/><path fill="#555" d="M72 48h8v7h-8v-7z"/><path fill="#55F" d="M96 48h4v16h-4V48z"/><path fill="#00A" d="M100 48h4v16h-4V48z"/><path fill="#555" d="M120 48h8v7h-8v-7z"/><path fill="#00A" d="M130 48h1v1h-1v-1zM134 48h1v1h-1v-1z"/><path d="M136 48h4v16h-4V48z"/><path fill="#F55" d="M144 48h4v16h-4V48z"/><path fill="#A00" d="M148 48h4v16h-4V48z"/><path fill="#555" d="M168 48h8v7h-8v-7z"/><path fill="#A00" d="M178 48h1v1h-1v-1zM182 48h1v1h-1v-1z"/><path d="M184 48h4v16h-4V48z"/><path fill="#555" d="M188 48h4v16h-4V48z"/><path fill="#FF5" d="M196 48h4v16h-4V48z"/><path d="M208 48h4v16h-4V48z"/><path fill="#555" d="M212 48h4v16h-4V48zM223 48h1v1h-1v-1z"/><path fill="#5F5" d="M224 48h4v16h-4V48z"/><path fill="#0A0" d="M228 48h4v16h-4V48z"/><path fill="#555" d="M248 48h8v7h-8v-7z"/><path fill="#0A0" d="M258 48h1v1h-1v-1zM262 48h1v1h-1v-1z"/><path d="M264 48h4v16h-4V48z"/><path fill="#555" d="M268 48h4v16h-4V48z"/><path fill="#AAA" d="M272 48h4v16h-4V48z"/><path fill="#A0A" d="M280 48h3v1h1v-1h3v1h1v1h-1v1h1v1h-1v1h1v1h-1v1h1v1h-1v1h1v1h-1v1h1v1h-1v1h1v1h-1v1h1v1h-2v-1h-1v1h-1v16h-5v1h1v1h-1v1h1v1h-1v1h1v1h-1v1h1v1h-1v1h1v1h-1v1h1v1h-1v1h1v1h-1v1h1v1h-2v-1h-1v1h-1v16h-4v7h-8V96h4V80h7v1h1V64h4V48zM312 48h3v1h1v-1h3v1h1v1h-1v1h1v1h-1v1h1v1h-1v1h1v1h-1v1h1v1h-1v1h1v1h-1v1h1v1h-1v1h1v1h-2v-1h-1v1h-1v16h-12V64h8V48z"/><path fill="#555" d="M324 48h4v16h-4V48z"/><path d="M328 48h4v16h-4V48z"/><path fill="#5FF" d="M332 48h4v16h-4V48z"/><path fill="#0AA" d="M336 48h4v16h-4V48z"/><path fill="#555" d="M352 48h16v7h-16v-7z"/><path fill="#0AA" d="M368 48h8v7h-8v-7z"/><path d="M376 48h4v16h-12v-9h8v-7z"/><path fill="#555" d="M380 48h4v16h-4V48z"/><path fill="#00A" d="M128 49h1v1h-1v-1zM132 49h1v1h-1v-1z"/><path fill="#A00" d="M176 49h1v1h-1v-1zM180 49h1v1h-1v-1z"/><path fill="#FF5" d="M201 49h1v1h-1v-1zM205 49h1v1h-1v-1z"/><path fill="#555" d="M217 49h1v1h-1v-1zM221 49h1v1h-1v-1z"/><path fill="#0A0" d="M256 49h1v1h-1v-1zM260 49h1v1h-1v-1z"/><path fill="#F5F" d="M281 49h1v1h-1v-1zM285 49h1v1h-1v-1zM313 49h1v1h-1v-1zM317 49h1v1h-1v-1z"/><path fill="#00A" d="M130 50h1v1h-1v-1zM134 50h1v1h-1v-1z"/><path fill="#A00" d="M178 50h1v1h-1v-1zM182 50h1v1h-1v-1z"/><path fill="#FF5" d="M203 50h1v1h-1v-1zM207 50h1v1h-1v-1z"/><path fill="#555" d="M219 50h1v1h-1v-1zM223 50h1v1h-1v-1z"/><path fill="#0A0" d="M258 50h1v1h-1v-1zM262 50h1v1h-1v-1z"/><path fill="#F5F" d="M283 50h1v1h-1v-1zM287 50h1v1h-1v-1zM315 50h1v1h-1v-1zM319 50h1v1h-1v-1z"/><path fill="#00A" d="M128 51h1v1h-1v-1zM132 51h1v1h-1v-1z"/><path fill="#A00" d="M176 51h1v1h-1v-1zM180 51h1v1h-1v-1z"/><path fill="#FF5" d="M201 51h1v1h-1v-1zM205 51h1v1h-1v-1z"/><path fill="#555" d="M217 51h1v1h-1v-1zM221 51h1v1h-1v-1z"/><path fill="#0A0" d="M256 51h1v1h-1v-1zM260 51h1v1h-1v-1z"/><path fill="#F5F" d="M281 51h1v1h-1v-1zM285 51h1v1h-1v-1zM313 51h1v1h-1v-1zM317 51h1v1h-1v-1z"/><path fill="#00A" d="M130 52h1v1h-1v-1zM134 52h1v1h-1v-1z"/><path fill="#A00" d="M178 52h1v1h-1v-1zM182 52h1v1h-1v-1z"/><path fill="#FF5" d="M203 52h1v1h-1v-1zM207 52h1v1h-1v-1z"/><path fill="#555" d="M219 52h1v1h-1v-1zM223 52h1v1h-1v-1z"/><path fill="#0A0" d="M258 52h1v1h-1v-1zM262 52h1v1h-1v-1z"/><path fill="#F5F" d="M283 52h1v1h-1v-1zM287 52h1v1h-1v-1zM315 52h1v1h-1v-1zM319 52h1v1h-1v-1z"/><path fill="#00A" d="M128 53h1v1h-1v-1zM132 53h1v1h-1v-1z"/><path fill="#A00" d="M176 53h1v1h-1v-1zM180 53h1v1h-1v-1z"/><path fill="#FF5" d="M201 53h1v1h-1v-1zM205 53h1v1h-1v-1z"/><path fill="#555" d="M217 53h1v1h-1v-1zM221 53h1v1h-1v-1z"/><path fill="#0A0" d="M256 53h1v1h-1v-1zM260 53h1v1h-1v-1z"/><path fill="#F5F" d="M281 53h1v1h-1v-1zM285 53h1v1h-1v-1zM313 53h1v1h-1v-1zM317 53h1v1h-1v-1z"/><path fill="#00A" d="M130 54h1v1h-1v-1zM134 54h1v1h-1v-1z"/><path fill="#A00" d="M178 54h1v1h-1v-1zM182 54h1v1h-1v-1z"/><path fill="#FF5" d="M203 54h1v1h-1v-1zM207 54h1v1h-1v-1z"/><path fill="#555" d="M219 54h1v1h-1v-1zM223 54h1v1h-1v-1z"/><path fill="#0A0" d="M258 54h1v1h-1v-1zM262 54h1v1h-1v-1z"/><path fill="#F5F" d="M283 54h1v1h-1v-1zM287 54h1v1h-1v-1zM315 54h1v1h-1v-1zM319 54h1v1h-1v-1z"/><path d="M72 55h8v9h-8v-9z"/><path fill="#555" d="M112 55h8v10h-1v-1h-3v1h-1v-1h-3v-9z"/><path fill="#AAA" d="M120 55h8v16h8v-7h4v16h-22v-1h-1v1h-1v16h-8V80h4V64h3v1h1v-1h3v1h1V55z"/><path fill="#00A" d="M128 55h1v1h-1v-1zM132 55h1v1h-1v-1z"/><path fill="#555" d="M160 55h8v10h-1v-1h-3v1h-1v-1h-3v-9z"/><path fill="#AAA" d="M168 55h8v9h-4v16h-4v16h-12V80h4V64h3v1h1v-1h3v1h1V55z"/><path fill="#A00" d="M176 55h1v1h-1v-1zM180 55h1v1h-1v-1z"/><path fill="#FF5" d="M201 55h1v1h-1v-1zM205 55h1v1h-1v-1z"/><path fill="#555" d="M217 55h1v1h-1v-1zM221 55h1v1h-1v-1zM240 55h8v10h-1v-1h-3v1h-1v-1h-3v-9z"/><path fill="#AAA" d="M248 55h8v9h-4v16h-4v16h-8V64h3v1h1v-1h3v1h1V55z"/><path fill="#0A0" d="M256 55h1v1h-1v-1zM260 55h1v1h-1v-1z"/><path fill="#F5F" d="M281 55h1v1h-1v-1zM285 55h1v1h-1v-1z"/><path fill="#555" d="M296 55h8v9h-8v-9z"/><path fill="#F5F" d="M313 55h1v1h-1v-1zM317 55h1v1h-1v-1z"/><path fill="#555" d="M344 55h8v9h-8v-9z"/><path fill="#AAA" d="M352 55h16v9h-16v-9z"/><path fill="#00A" d="M130 56h1v1h-1v-1zM134 56h1v1h-1v-1z"/><path fill="#A00" d="M178 56h1v1h-1v-1zM182 56h1v1h-1v-1z"/><path fill="#FF5" d="M203 56h1v1h-1v-1zM207 56h1v1h-1v-1z"/><path fill="#555" d="M219 56h1v1h-1v-1zM223 56h1v1h-1v-1z"/><path fill="#0A0" d="M258 56h1v1h-1v-1zM262 56h1v1h-1v-1z"/><path fill="#F5F" d="M283 56h1v1h-1v-1zM287 56h1v1h-1v-1zM315 56h1v1h-1v-1zM319 56h1v1h-1v-1z"/><path fill="#00A" d="M128 57h1v1h-1v-1zM132 57h1v1h-1v-1z"/><path fill="#A00" d="M176 57h1v1h-1v-1zM180 57h1v1h-1v-1z"/><path fill="#FF5" d="M201 57h1v1h-1v-1zM205 57h1v1h-1v-1z"/><path fill="#555" d="M217 57h1v1h-1v-1zM221 57h1v1h-1v-1z"/><path fill="#0A0" d="M256 57h1v1h-1v-1zM260 57h1v1h-1v-1z"/><path fill="#F5F" d="M281 57h1v1h-1v-1zM285 57h1v1h-1v-1zM313 57h1v1h-1v-1zM317 57h1v1h-1v-1z"/><path fill="#00A" d="M130 58h1v1h-1v-1zM134 58h1v1h-1v-1z"/><path fill="#A00" d="M178 58h1v1h-1v-1zM182 58h1v1h-1v-1z"/><path fill="#FF5" d="M203 58h1v1h-1v-1zM207 58h1v1h-1v-1z"/><path fill="#555" d="M219 58h1v1h-1v-1zM223 58h1v1h-1v-1z"/><path fill="#0A0" d="M258 58h1v1h-1v-1zM262 58h1v1h-1v-1z"/><path fill="#F5F" d="M283 58h1v1h-1v-1zM287 58h1v1h-1v-1zM315 58h1v1h-1v-1zM319 58h1v1h-1v-1z"/><path fill="#00A" d="M128 59h1v1h-1v-1zM132 59h1v1h-1v-1z"/><path fill="#A00" d="M176 59h1v1h-1v-1zM180 59h1v1h-1v-1z"/><path fill="#FF5" d="M201 59h1v1h-1v-1zM205 59h1v1h-1v-1z"/><path fill="#555" d="M217 59h1v1h-1v-1zM221 59h1v1h-1v-1z"/><path fill="#0A0" d="M256 59h1v1h-1v-1zM260 59h1v1h-1v-1z"/><path fill="#F5F" d="M281 59h1v1h-1v-1zM285 59h1v1h-1v-1zM313 59h1v1h-1v-1zM317 59h1v1h-1v-1z"/><path fill="#00A" d="M130 60h1v1h-1v-1zM134 60h1v1h-1v-1z"/><path fill="#A00" d="M178 60h1v1h-1v-1zM182 60h1v1h-1v-1z"/><path fill="#FF5" d="M203 60h1v1h-1v-1zM207 60h1v1h-1v-1z"/><path fill="#555" d="M219 60h1v1h-1v-1zM223 60h1v1h-1v-1z"/><path fill="#0A0" d="M258 60h1v1h-1v-1zM262 60h1v1h-1v-1z"/><path fill="#F5F" d="M283 60h1v1h-1v-1zM287 60h1v1h-1v-1zM315 60h1v1h-1v-1zM319 60h1v1h-1v-1z"/><path fill="#00A" d="M128 61h1v1h-1v-1zM132 61h1v1h-1v-1z"/><path fill="#A00" d="M176 61h1v1h-1v-1zM180 61h1v1h-1v-1z"/><path fill="#FF5" d="M201 61h1v1h-1v-1zM205 61h1v1h-1v-1z"/><path fill="#555" d="M217 61h1v1h-1v-1zM221 61h1v1h-1v-1z"/><path fill="#0A0" d="M256 61h1v1h-1v-1zM260 61h1v1h-1v-1z"/><path fill="#F5F" d="M281 61h1v1h-1v-1zM285 61h1v1h-1v-1zM313 61h1v1h-1v-1zM317 61h1v1h-1v-1z"/><path fill="#00A" d="M130 62h1v1h-1v-1zM134 62h1v1h-1v-1z"/><path fill="#A00" d="M178 62h1v1h-1v-1zM182 62h1v1h-1v-1z"/><path fill="#FF5" d="M203 62h1v1h-1v-1zM207 62h1v1h-1v-1z"/><path fill="#555" d="M219 62h1v1h-1v-1zM223 62h1v1h-1v-1z"/><path fill="#0A0" d="M258 62h1v1h-1v-1zM262 62h1v1h-1v-1z"/><path fill="#F5F" d="M283 62h1v1h-1v-1zM287 62h1v1h-1v-1zM315 62h1v1h-1v-1zM319 62h1v1h-1v-1z"/><path fill="#00A" d="M128 63h1v1h-1v-1zM132 63h1v1h-1v-1z"/><path fill="#A00" d="M176 63h1v1h3v16h-4V63zM180 63h1v1h-1v-1z"/><path fill="#FF5" d="M201 63h1v1h-1v-1zM205 63h1v1h-1v-1z"/><path fill="#555" d="M217 63h1v1h-1v-1zM221 63h1v1h-1v-1z"/><path fill="#0A0" d="M256 63h1v1h3v16h-4V63zM260 63h1v1h-1v-1z"/><path fill="#F5F" d="M281 63h1v1h-1v-1zM285 63h1v1h-1v-1zM313 63h1v1h-1v-1zM317 63h1v1h-1v-1z"/><path d="M36 64h4v16h-4V64z"/><path fill="#AAA" d="M40 64h4v16h-1v1h-1v-1h-2V64z"/><path d="M56 64h8v16h-4v16h-8V80h4V64z"/><path fill="#AAA" d="M64 64h4v16h-1v1h-1v-1h-2V64z"/><path d="M80 64h4v16h-4V64z"/><path fill="#555" d="M84 64h4v16h-4V64z"/><path fill="#55F" d="M92 64h4v16h-4V64z"/><path fill="#00A" d="M96 64h4v16h-4V64z"/><path fill="#555" d="M108 64h4v16h-4V64z"/><path d="M128 64h8v7h-8v-7z"/><path fill="#F55" d="M140 64h4v16h-4V64z"/><path fill="#A00" d="M144 64h4v16h-4V64z"/><path fill="#555" d="M156 64h4v16h-4V64z"/><path fill="#F55" d="M172 64h4v16h-4V64z"/><path d="M180 64h4v16h-4V64z"/><path fill="#555" d="M184 64h4v16h-4V64z"/><path fill="#AAA" d="M188 64h4v16h-4V64z"/><path fill="#FF5" d="M192 64h4v17h-1v-1h-3V64z"/><path d="M204 64h4v16h-4V64z"/><path fill="#555" d="M208 64h4v17h-1v-1h-3V64z"/><path fill="#5F5" d="M220 64h4v16h-4V64z"/><path fill="#0A0" d="M224 64h4v16h-4V64z"/><path fill="#555" d="M236 64h4v39h-8v-7h1v-1h-1v-1h1v-1h-1v-1h1v-1h-1v-1h1v-1h-1v-1h1v-1h-1v-1h1v-1h-1v-1h1v-1h-1v-1h1v-1h-1v-1h2v1h1v-1h1V64z"/><path fill="#5F5" d="M252 64h4v16h-4V64z"/><path d="M260 64h4v16h-4V64z"/><path fill="#555" d="M264 64h4v16h-4V64z"/><path fill="#AAA" d="M268 64h4v16h-4V64z"/><path fill="#F5F" d="M272 64h4v17h-1v-1h-3V64z"/><path d="M284 64h4v16h-4V64z"/><path fill="#555" d="M288 64h4v17h-1v-1h-3V64z"/><path d="M316 64h4v23h-16v-7h12V64z"/><path fill="#555" d="M320 64h4v16h-4V64z"/><path fill="#AAA" d="M324 64h12v7h16v9h3v1h1v-1h3v1h1v1h-1v1h1v1h-1v1h1v1h-1v1h1v1h-1v1h1v1h-1v1h1v1h-1v1h1v1h-1v1h1v1h-2v-1h-1v1h-3v-1h-1v1h-9V80h-1v1h-1v-1h-3v1h-1v-1h-14V64z"/><path fill="#5FF" d="M336 64h16v7h-16v-7z"/><path d="M352 64h16v7h-16v-7z"/><path fill="#555" d="M113 65h1v1h-1v-1zM117 65h1v1h-1v-1zM161 65h1v1h-1v-1zM165 65h1v1h-1v-1zM241 65h1v1h-1v-1zM245 65h1v1h-1v-1zM115 66h1v1h-1v-1zM119 66h1v1h-1v-1zM163 66h1v1h-1v-1zM167 66h1v1h-1v-1zM243 66h1v1h-1v-1zM247 66h1v1h-1v-1zM113 67h1v1h-1v-1zM117 67h1v1h-1v-1zM161 67h1v1h-1v-1zM165 67h1v1h-1v-1zM241 67h1v1h-1v-1zM245 67h1v1h-1v-1zM115 68h1v1h-1v-1zM119 68h1v1h-1v-1zM163 68h1v1h-1v-1zM167 68h1v1h-1v-1zM243 68h1v1h-1v-1zM247 68h1v1h-1v-1zM113 69h1v1h-1v-1zM117 69h1v1h-1v-1zM161 69h1v1h-1v-1zM165 69h1v1h-1v-1zM241 69h1v1h-1v-1zM245 69h1v1h-1v-1zM115 70h1v1h-1v-1zM119 70h1v1h-1v-1zM163 70h1v1h-1v-1zM167 70h1v1h-1v-1zM243 70h1v1h-1v-1zM247 70h1v1h-1v-1zM113 71h1v1h-1v-1zM117 71h1v1h-1v-1zM161 71h1v1h-1v-1zM165 71h1v1h-1v-1zM241 71h1v1h-1v-1zM245 71h1v1h-1v-1z"/><path fill="#5FF" d="M352 71h16v10h-1v-1h-3v1h-1v-1h-3v1h-1v-1h-3v1h-1v-1h-3v-9z"/><path fill="#555" d="M368 71h8v32h-8v-7h4V80h-4v-9zM115 72h1v1h-1v-1zM119 72h1v1h-1v-1zM163 72h1v1h-1v-1zM167 72h1v1h-1v-1zM243 72h1v1h-1v-1zM247 72h1v1h-1v-1zM113 73h1v1h-1v-1zM117 73h1v1h-1v-1zM161 73h1v1h-1v-1zM165 73h1v1h-1v-1zM241 73h1v1h-1v-1zM245 73h1v1h-1v-1zM115 74h1v1h-1v-1zM119 74h1v1h-1v-1zM163 74h1v1h-1v-1zM167 74h1v1h-1v-1zM243 74h1v1h-1v-1zM247 74h1v1h-1v-1zM113 75h1v1h-1v-1zM117 75h1v1h-1v-1zM161 75h1v1h-1v-1zM165 75h1v1h-1v-1zM241 75h1v1h-1v-1zM245 75h1v1h-1v-1zM115 76h1v1h-1v-1zM119 76h1v1h-1v-1zM163 76h1v1h-1v-1zM167 76h1v1h-1v-1zM243 76h1v1h-1v-1zM247 76h1v1h-1v-1zM113 77h1v1h-1v-1zM117 77h1v1h-1v-1zM161 77h1v1h-1v-1zM165 77h1v1h-1v-1zM241 77h1v1h-1v-1zM245 77h1v1h-1v-1zM115 78h1v1h-1v-1zM119 78h1v1h-1v-1zM163 78h1v1h-1v-1zM167 78h1v1h-1v-1zM243 78h1v1h-1v-1zM247 78h1v1h-1v-1zM113 79h1v1h-1v-1zM117 79h1v1h-1v-1zM161 79h1v1h-1v-1zM165 79h1v1h-1v-1zM241 79h1v1h-1v-1zM245 79h1v1h-1v-1z"/><path fill="#AAA" d="M26 80h1v1h-1v-1zM30 80h1v1h-1v-1z"/><path d="M32 80h4v16h-4V80z"/><path fill="#555" d="M36 80h4v16h-4V80z"/><path fill="#AAA" d="M46 80h1v1h-1v-1zM60 80h4v1h1v1h-1v1h1v1h-1v1h1v1h-1v1h1v1h-1v1h1v1h-1v1h1v1h-1v1h1v1h-1v1h1v1h-2v1h-1v-1h-2V80zM70 80h1v1h-1v-1z"/><path d="M76 80h4v23h-8v-7h4V80z"/><path fill="#555" d="M80 80h4v17h-1v-1h-3V80z"/><path fill="#55F" d="M88 80h4v16h-4V80z"/><path fill="#00A" d="M92 80h4v16h3v1h1v-1h3v1h1v1h-1v1h1v1h-1v1h1v1h-1v1h9v9h-10v-1h-1v1h-3v-1h-1v1h-1v-9h-8v-7h4V80z"/><path fill="#555" d="M104 80h4v16h4v7h-8V80z"/><path fill="#55F" d="M116 80h4v16h-4V80z"/><path fill="#00A" d="M120 80h8v16h-8V80z"/><path d="M128 80h4v16h-4V80z"/><path fill="#555" d="M132 80h4v16h-4V80z"/><path fill="#F55" d="M136 80h4v16h-4V80z"/><path fill="#A00" d="M140 80h4v16h3v1h1v-1h3v1h1v1h-1v1h1v1h-1v1h1v1h-1v1h9v9h-10v-1h-1v1h-3v-1h-1v1h-1v-9h-8v-7h4V80z"/><path fill="#555" d="M152 80h4v16h4v7h-8V80z"/><path fill="#A00" d="M168 80h8v16h-8V80z"/><path d="M176 80h4v16h-4V80z"/><path fill="#555" d="M180 80h4v17h-1v-1h-3V80z"/><path fill="#AAA" d="M184 80h4v16h-4V80z"/><path fill="#FF5" d="M188 80h4v16h-4V80zM199 80h1v1h-1v-1z"/><path d="M200 80h4v16h-4V80z"/><path fill="#555" d="M204 80h4v16h-4V80zM215 80h1v1h-1v-1z"/><path fill="#5F5" d="M216 80h4v16h-4V80z"/><path fill="#0A0" d="M220 80h4v16h3v1h1v-1h3v1h1v1h-1v1h1v1h-1v1h1v1h-1v1h9v9h-10v-1h-1v1h-3v-1h-1v1h-1v-9h-8v-7h4V80z"/><path fill="#AAA" d="M234 80h1v1h-1v-1zM238 80h1v1h-1v-1z"/><path fill="#0A0" d="M248 80h8v16h-8V80z"/><path d="M256 80h4v16h-4V80z"/><path fill="#555" d="M260 80h4v17h-1v-1h-3V80z"/><path fill="#AAA" d="M264 80h4v16h-4V80z"/><path fill="#F5F" d="M279 80h1v1h-1v-1z"/><path d="M280 80h4v16h-4V80z"/><path fill="#555" d="M284 80h4v16h-4V80zM295 80h1v1h-1v-1z"/><path fill="#0AA" d="M320 80h3v1h1v-1h3v1h1v1h-1v1h1v1h-1v1h1v1h-1v1h1v1h-1v1h1v1h-1v1h1v1h-1v1h1v1h-1v1h1v1h3v1h1v-1h3v1h1v1h-1v1h1v1h-1v1h1v1h-1v1h17v9h-18v-1h-1v1h-3v-1h-1v1h-1v-9h-8V80z"/><path fill="#5FF" d="M323 80h1v1h-1v-1zM327 80h1v1h-1v-1z"/><path d="M328 80h8v16h-8V80z"/><path fill="#555" d="M336 80h2v1h1v-1h3v1h1v-1h1v16h-3v-1h-1v1h-3v-1h-1v-1h1v-1h-1v-1h1v-1h-1v-1h1v-1h-1v-1h1v-1h-1v-1h1v-1h-1v-1h1v-1h-1v-1h1v-1h-1v-1z"/><path fill="#0AA" d="M360 80h3v1h1v-1h3v1h1v1h-1v1h1v1h-1v1h1v1h-1v1h1v1h-1v1h1v1h-1v1h1v1h-1v1h1v1h-1v1h1v1h-2v-1h-1v1h-3v-1h-1v1h-1V80z"/><path d="M368 80h4v16h-4V80z"/><path fill="#555" d="M379 80h1v1h-1v-1zM383 80h1v1h-1v-1z"/><path fill="#AAA" d="M24 81h1v1h-1v-1zM28 81h1v1h-1v-1zM40 81h1v1h-1v-1zM44 81h1v1h-1v-1zM68 81h1v1h-1v-1z"/><path fill="#FF5" d="M193 81h1v1h-1v-1zM197 81h1v1h-1v-1z"/><path fill="#555" d="M209 81h1v1h-1v-1zM213 81h1v1h-1v-1z"/><path fill="#AAA" d="M232 81h1v1h-1v-1zM236 81h1v1h-1v-1z"/><path fill="#F5F" d="M273 81h1v1h-1v-1zM277 81h1v1h-1v-1z"/><path fill="#555" d="M289 81h1v1h-1v-1zM293 81h1v1h-1v-1z"/><path fill="#5FF" d="M321 81h1v1h-1v-1zM325 81h1v1h-1v-1z"/><path fill="#AAA" d="M336 81h1v1h-1v-1zM340 81h1v1h-1v-1z"/><path fill="#5FF" d="M353 81h1v1h-1v-1zM357 81h1v1h-1v-1zM361 81h1v1h-1v-1zM365 81h1v1h-1v-1z"/><path fill="#555" d="M377 81h1v1h-1v-1zM381 81h1v1h-1v-1z"/><path fill="#AAA" d="M26 82h1v1h-1v-1zM30 82h1v1h-1v-1zM42 82h1v1h-1v-1zM46 82h1v1h-1v-1zM66 82h1v1h-1v-1zM70 82h1v1h-1v-1z"/><path fill="#FF5" d="M195 82h1v1h-1v-1zM199 82h1v1h-1v-1z"/><path fill="#555" d="M211 82h1v1h-1v-1zM215 82h1v1h-1v-1z"/><path fill="#AAA" d="M234 82h1v1h-1v-1zM238 82h1v1h-1v-1z"/><path fill="#F5F" d="M275 82h1v1h-1v-1zM279 82h1v1h-1v-1z"/><path fill="#555" d="M291 82h1v1h-1v-1zM295 82h1v1h-1v-1z"/><path fill="#5FF" d="M323 82h1v1h-1v-1zM327 82h1v1h-1v-1z"/><path fill="#AAA" d="M338 82h1v1h-1v-1zM342 82h1v1h-1v-1z"/><path fill="#5FF" d="M355 82h1v1h-1v-1zM359 82h1v1h-1v-1zM363 82h1v1h-1v-1zM367 82h1v1h-1v-1z"/><path fill="#555" d="M379 82h1v1h-1v-1zM383 82h1v1h-1v-1z"/><path fill="#AAA" d="M24 83h1v1h-1v-1zM28 83h1v1h-1v-1zM40 83h1v1h-1v-1zM44 83h1v1h-1v-1zM68 83h1v1h-1v-1z"/><path fill="#FF5" d="M193 83h1v1h-1v-1zM197 83h1v1h-1v-1z"/><path fill="#555" d="M209 83h1v1h-1v-1zM213 83h1v1h-1v-1z"/><path fill="#AAA" d="M232 83h1v1h-1v-1zM236 83h1v1h-1v-1z"/><path fill="#F5F" d="M273 83h1v1h-1v-1zM277 83h1v1h-1v-1z"/><path fill="#555" d="M289 83h1v1h-1v-1zM293 83h1v1h-1v-1z"/><path fill="#5FF" d="M321 83h1v1h-1v-1zM325 83h1v1h-1v-1z"/><path fill="#AAA" d="M336 83h1v1h-1v-1zM340 83h1v1h-1v-1z"/><path fill="#5FF" d="M353 83h1v1h-1v-1zM357 83h1v1h-1v-1zM361 83h1v1h-1v-1zM365 83h1v1h-1v-1z"/><path fill="#555" d="M377 83h1v1h-1v-1zM381 83h1v1h-1v-1z"/><path fill="#AAA" d="M26 84h1v1h-1v-1zM30 84h1v1h-1v-1zM42 84h1v1h-1v-1zM46 84h1v1h-1v-1zM66 84h1v1h-1v-1zM70 84h1v1h-1v-1z"/><path fill="#FF5" d="M195 84h1v1h-1v-1zM199 84h1v1h-1v-1z"/><path fill="#555" d="M211 84h1v1h-1v-1zM215 84h1v1h-1v-1z"/><path fill="#AAA" d="M234 84h1v1h-1v-1zM238 84h1v1h-1v-1z"/><path fill="#F5F" d="M275 84h1v1h-1v-1zM279 84h1v1h-1v-1z"/><path fill="#555" d="M291 84h1v1h-1v-1zM295 84h1v1h-1v-1z"/><path fill="#5FF" d="M323 84h1v1h-1v-1zM327 84h1v1h-1v-1z"/><path fill="#AAA" d="M338 84h1v1h-1v-1zM342 84h1v1h-1v-1z"/><path fill="#5FF" d="M355 84h1v1h-1v-1zM359 84h1v1h-1v-1zM363 84h1v1h-1v-1zM367 84h1v1h-1v-1z"/><path fill="#555" d="M379 84h1v1h-1v-1zM383 84h1v1h-1v-1z"/><path fill="#AAA" d="M24 85h1v1h-1v-1zM28 85h1v1h-1v-1zM40 85h1v1h-1v-1zM44 85h1v1h-1v-1zM68 85h1v1h-1v-1z"/><path fill="#FF5" d="M193 85h1v1h-1v-1zM197 85h1v1h-1v-1z"/><path fill="#555" d="M209 85h1v1h-1v-1zM213 85h1v1h-1v-1z"/><path fill="#AAA" d="M232 85h1v1h-1v-1zM236 85h1v1h-1v-1z"/><path fill="#F5F" d="M273 85h1v1h-1v-1zM277 85h1v1h-1v-1z"/><path fill="#555" d="M289 85h1v1h-1v-1zM293 85h1v1h-1v-1z"/><path fill="#5FF" d="M321 85h1v1h-1v-1zM325 85h1v1h-1v-1z"/><path fill="#AAA" d="M336 85h1v1h-1v-1zM340 85h1v1h-1v-1z"/><path fill="#5FF" d="M353 85h1v1h-1v-1zM357 85h1v1h-1v-1zM361 85h1v1h-1v-1zM365 85h1v1h-1v-1z"/><path fill="#555" d="M377 85h1v1h-1v-1zM381 85h1v1h-1v-1z"/><path fill="#AAA" d="M26 86h1v1h-1v-1zM30 86h1v1h-1v-1zM42 86h1v1h-1v-1zM46 86h1v1h-1v-1zM66 86h1v1h-1v-1zM70 86h1v1h-1v-1z"/><path fill="#FF5" d="M195 86h1v1h-1v-1zM199 86h1v1h-1v-1z"/><path fill="#555" d="M211 86h1v1h-1v-1zM215 86h1v1h-1v-1z"/><path fill="#AAA" d="M234 86h1v1h-1v-1zM238 86h1v1h-1v-1z"/><path fill="#F5F" d="M275 86h1v1h-1v-1zM279 86h1v1h-1v-1z"/><path fill="#555" d="M291 86h1v1h-1v-1zM295 86h1v1h-1v-1z"/><path fill="#5FF" d="M323 86h1v1h-1v-1zM327 86h1v1h-1v-1z"/><path fill="#AAA" d="M338 86h1v1h-1v-1zM342 86h1v1h-1v-1z"/><path fill="#5FF" d="M355 86h1v1h-1v-1zM359 86h1v1h-1v-1zM363 86h1v1h-1v-1zM367 86h1v1h-1v-1z"/><path fill="#555" d="M379 86h1v1h-1v-1zM383 86h1v1h-1v-1z"/><path fill="#AAA" d="M24 87h1v1h-1v-1zM28 87h1v1h-1v-1zM40 87h1v1h-1v-1zM44 87h1v1h-1v-1zM68 87h1v1h-1v-1z"/><path fill="#FF5" d="M193 87h1v1h-1v-1zM197 87h1v1h-1v-1z"/><path fill="#555" d="M209 87h1v1h-1v-1zM213 87h1v1h-1v-1z"/><path fill="#AAA" d="M232 87h1v1h-1v-1zM236 87h1v1h-1v-1z"/><path fill="#F5F" d="M273 87h1v1h-1v-1zM277 87h1v1h-1v-1z"/><path fill="#555" d="M289 87h1v1h-1v-1zM293 87h1v1h-1v-1zM304 87h16v10h-1v-1h-3v1h-1v-1h-11v-9z"/><path fill="#5FF" d="M321 87h1v1h-1v-1zM325 87h1v1h-1v-1z"/><path fill="#AAA" d="M336 87h1v1h-1v-1zM340 87h1v1h-1v-1z"/><path fill="#5FF" d="M353 87h1v1h-1v-1zM357 87h1v1h-1v-1zM361 87h1v1h-1v-1zM365 87h1v1h-1v-1z"/><path fill="#555" d="M377 87h1v1h-1v-1zM381 87h1v1h-1v-1z"/><path fill="#AAA" d="M26 88h1v1h-1v-1zM30 88h1v1h-1v-1zM42 88h1v1h-1v-1zM46 88h1v1h-1v-1zM66 88h1v1h-1v-1zM70 88h1v1h-1v-1z"/><path fill="#FF5" d="M195 88h1v1h-1v-1zM199 88h1v1h-1v-1z"/><path fill="#555" d="M211 88h1v1h-1v-1zM215 88h1v1h-1v-1z"/><path fill="#AAA" d="M234 88h1v1h-1v-1zM238 88h1v1h-1v-1z"/><path fill="#F5F" d="M275 88h1v1h-1v-1zM279 88h1v1h-1v-1z"/><path fill="#555" d="M291 88h1v1h-1v-1zM295 88h1v1h-1v-1z"/><path fill="#5FF" d="M323 88h1v1h-1v-1zM327 88h1v1h-1v-1z"/><path fill="#AAA" d="M338 88h1v1h-1v-1zM342 88h1v1h-1v-1z"/><path fill="#5FF" d="M355 88h1v1h-1v-1zM359 88h1v1h-1v-1zM363 88h1v1h-1v-1zM367 88h1v1h-1v-1z"/><path fill="#555" d="M379 88h1v1h-1v-1zM383 88h1v1h-1v-1z"/><path fill="#AAA" d="M24 89h1v1h-1v-1zM28 89h1v1h-1v-1zM40 89h1v1h-1v-1zM44 89h1v1h-1v-1zM68 89h1v1h-1v-1z"/><path fill="#FF5" d="M193 89h1v1h-1v-1zM197 89h1v1h-1v-1z"/><path fill="#555" d="M209 89h1v1h-1v-1zM213 89h1v1h-1v-1z"/><path fill="#AAA" d="M232 89h1v1h-1v-1zM236 89h1v1h-1v-1z"/><path fill="#F5F" d="M273 89h1v1h-1v-1zM277 89h1v1h-1v-1z"/><path fill="#555" d="M289 89h1v1h-1v-1zM293 89h1v1h-1v-1z"/><path fill="#5FF" d="M321 89h1v1h-1v-1zM325 89h1v1h-1v-1z"/><path fill="#AAA" d="M336 89h1v1h-1v-1zM340 89h1v1h-1v-1z"/><path fill="#5FF" d="M353 89h1v1h-1v-1zM357 89h1v1h-1v-1zM361 89h1v1h-1v-1zM365 89h1v1h-1v-1z"/><path fill="#555" d="M377 89h1v1h-1v-1zM381 89h1v1h-1v-1z"/><path fill="#AAA" d="M26 90h1v1h-1v-1zM30 90h1v1h-1v-1zM42 90h1v1h-1v-1zM46 90h1v1h-1v-1zM66 90h1v1h-1v-1zM70 90h1v1h-1v-1z"/><path fill="#FF5" d="M195 90h1v1h-1v-1zM199 90h1v1h-1v-1z"/><path fill="#555" d="M211 90h1v1h-1v-1zM215 90h1v1h-1v-1z"/><path fill="#AAA" d="M234 90h1v1h-1v-1zM238 90h1v1h-1v-1z"/><path fill="#F5F" d="M275 90h1v1h-1v-1zM279 90h1v1h-1v-1z"/><path fill="#555" d="M291 90h1v1h-1v-1zM295 90h1v1h-1v-1z"/><path fill="#5FF" d="M323 90h1v1h-1v-1zM327 90h1v1h-1v-1z"/><path fill="#AAA" d="M338 90h1v1h-1v-1zM342 90h1v1h-1v-1z"/><path fill="#5FF" d="M355 90h1v1h-1v-1zM359 90h1v1h-1v-1zM363 90h1v1h-1v-1zM367 90h1v1h-1v-1z"/><path fill="#555" d="M379 90h1v1h-1v-1zM383 90h1v1h-1v-1z"/><path fill="#AAA" d="M24 91h1v1h-1v-1zM28 91h1v1h-1v-1zM40 91h1v1h-1v-1zM44 91h1v1h-1v-1zM68 91h1v1h-1v-1z"/><path fill="#FF5" d="M193 91h1v1h-1v-1zM197 91h1v1h-1v-1z"/><path fill="#555" d="M209 91h1v1h-1v-1zM213 91h1v1h-1v-1z"/><path fill="#AAA" d="M232 91h1v1h-1v-1zM236 91h1v1h-1v-1z"/><path fill="#F5F" d="M273 91h1v1h-1v-1zM277 91h1v1h-1v-1z"/><path fill="#555" d="M289 91h1v1h-1v-1zM293 91h1v1h-1v-1z"/><path fill="#5FF" d="M321 91h1v1h-1v-1zM325 91h1v1h-1v-1z"/><path fill="#AAA" d="M336 91h1v1h-1v-1zM340 91h1v1h-1v-1z"/><path fill="#5FF" d="M353 91h1v1h-1v-1zM357 91h1v1h-1v-1zM361 91h1v1h-1v-1zM365 91h1v1h-1v-1z"/><path fill="#555" d="M377 91h1v1h-1v-1zM381 91h1v1h-1v-1z"/><path fill="#AAA" d="M26 92h1v1h-1v-1zM30 92h1v1h-1v-1zM42 92h1v1h-1v-1zM46 92h1v1h-1v-1zM66 92h1v1h-1v-1zM70 92h1v1h-1v-1z"/><path fill="#FF5" d="M195 92h1v1h-1v-1zM199 92h1v1h-1v-1z"/><path fill="#555" d="M211 92h1v1h-1v-1zM215 92h1v1h-1v-1z"/><path fill="#AAA" d="M234 92h1v1h-1v-1zM238 92h1v1h-1v-1z"/><path fill="#F5F" d="M275 92h1v1h-1v-1zM279 92h1v1h-1v-1z"/><path fill="#555" d="M291 92h1v1h-1v-1zM295 92h1v1h-1v-1z"/><path fill="#5FF" d="M323 92h1v1h-1v-1zM327 92h1v1h-1v-1z"/><path fill="#AAA" d="M338 92h1v1h-1v-1zM342 92h1v1h-1v-1z"/><path fill="#5FF" d="M355 92h1v1h-1v-1zM359 92h1v1h-1v-1zM363 92h1v1h-1v-1zM367 92h1v1h-1v-1z"/><path fill="#555" d="M379 92h1v1h-1v-1zM383 92h1v1h-1v-1z"/><path fill="#AAA" d="M24 93h1v1h-1v-1zM28 93h1v1h-1v-1zM40 93h1v1h-1v-1zM44 93h1v1h-1v-1zM68 93h1v1h-1v-1z"/><path fill="#FF5" d="M193 93h1v1h-1v-1zM197 93h1v1h-1v-1z"/><path fill="#555" d="M209 93h1v1h-1v-1zM213 93h1v1h-1v-1z"/><path fill="#AAA" d="M232 93h1v1h-1v-1zM236 93h1v1h-1v-1z"/><path fill="#F5F" d="M273 93h1v1h-1v-1zM277 93h1v1h-1v-1z"/><path fill="#555" d="M289 93h1v1h-1v-1zM293 93h1v1h-1v-1z"/><path fill="#5FF" d="M321 93h1v1h-1v-1zM325 93h1v1h-1v-1z"/><path fill="#AAA" d="M336 93h1v1h-1v-1zM340 93h1v1h-1v-1z"/><path fill="#5FF" d="M353 93h1v1h-1v-1zM357 93h1v1h-1v-1zM361 93h1v1h-1v-1zM365 93h1v1h-1v-1z"/><path fill="#555" d="M377 93h1v1h-1v-1zM381 93h1v1h-1v-1z"/><path fill="#AAA" d="M26 94h1v1h-1v-1zM30 94h1v1h-1v-1zM42 94h1v1h-1v-1zM46 94h1v1h-1v-1zM66 94h1v1h-1v-1zM70 94h1v1h-1v-1z"/><path fill="#FF5" d="M195 94h1v1h-1v-1zM199 94h1v1h-1v-1z"/><path fill="#555" d="M211 94h1v1h-1v-1zM215 94h1v1h-1v-1z"/><path fill="#AAA" d="M234 94h1v1h-1v-1zM238 94h1v1h-1v-1z"/><path fill="#F5F" d="M275 94h1v1h-1v-1zM279 94h1v1h-1v-1z"/><path fill="#555" d="M291 94h1v1h-1v-1zM295 94h1v1h-1v-1z"/><path fill="#5FF" d="M323 94h1v1h-1v-1zM327 94h1v1h-1v-1z"/><path fill="#AAA" d="M338 94h1v1h-1v-1zM342 94h1v1h-1v-1z"/><path fill="#5FF" d="M355 94h1v1h-1v-1zM359 94h1v1h-1v-1zM363 94h1v1h-1v-1zM367 94h1v1h-1v-1z"/><path fill="#555" d="M379 94h1v1h-1v-1zM383 94h1v1h-1v-1z"/><path fill="#AAA" d="M24 95h1v1h-1v-1zM28 95h1v1h-1v-1zM40 95h1v1h-1v-1zM44 95h1v1h-1v-1zM68 95h1v1h-1v-1z"/><path fill="#FF5" d="M193 95h1v1h-1v-1zM197 95h1v1h-1v-1z"/><path fill="#555" d="M209 95h1v1h-1v-1zM213 95h1v1h-1v-1z"/><path fill="#AAA" d="M232 95h1v1h-1v-1zM236 95h1v1h-1v-1z"/><path fill="#F5F" d="M273 95h1v1h-1v-1zM277 95h1v1h-1v-1z"/><path fill="#555" d="M289 95h1v1h-1v-1zM293 95h1v1h-1v-1z"/><path fill="#5FF" d="M321 95h1v1h-1v-1zM325 95h1v1h-1v-1z"/><path fill="#AAA" d="M336 95h1v1h-1v-1zM340 95h1v1h-1v-1z"/><path fill="#5FF" d="M353 95h1v1h-1v-1zM357 95h1v1h-1v-1zM361 95h1v1h-1v-1zM365 95h1v1h-1v-1z"/><path fill="#555" d="M377 95h1v1h-1v-1zM381 95h1v1h-1v-1z"/><path d="M28 96h4v23H16v-7h12V96z"/><path fill="#555" d="M32 96h4v16h-4V96z"/><path fill="#AAA" d="M58 96h1v1h-1v-1z"/><path fill="#555" d="M87 96h1v1h-1v-1z"/><path fill="#55F" d="M99 96h1v1h-1v-1zM103 96h1v1h-1v-1z"/><path fill="#00A" d="M112 96h8v7h-8v-7z"/><path d="M120 96h8v7h-8v-7z"/><path fill="#F55" d="M147 96h1v1h-1v-1zM151 96h1v1h-1v-1z"/><path fill="#A00" d="M160 96h8v7h-8v-7z"/><path d="M168 96h8v7h-8v-7z"/><path fill="#555" d="M179 96h1v1h-1v-1z"/><path d="M196 96h4v23h-8v-7h4V96z"/><path fill="#555" d="M200 96h4v16h4v7h-8V96z"/><path fill="#5F5" d="M227 96h1v1h-1v-1zM231 96h1v1h-1v-1z"/><path fill="#0A0" d="M240 96h8v7h-8v-7z"/><path d="M248 96h8v7h-8v-7z"/><path fill="#555" d="M259 96h1v1h-1v-1z"/><path d="M276 96h4v23h-8v-7h4V96z"/><path fill="#555" d="M280 96h4v16h4v7h-8V96z"/><path fill="#5FF" d="M331 96h1v1h-1v-1zM335 96h1v1h-1v-1z"/><path d="M336 96h8v7h-8v-7z"/><path fill="#555" d="M344 96h8v7h-8v-7z"/><path fill="#0AA" d="M352 96h8v7h-8v-7z"/><path d="M360 96h8v7h-8v-7z"/><path fill="#AAA" d="M56 97h1v1h-1v-1zM60 97h1v1h-1v-1z"/><path fill="#555" d="M81 97h1v1h-1v-1zM85 97h1v1h-1v-1z"/><path fill="#55F" d="M97 97h1v1h-1v-1zM101 97h1v1h-1v-1z"/><path fill="#F55" d="M145 97h1v1h-1v-1zM149 97h1v1h-1v-1z"/><path fill="#555" d="M177 97h1v1h-1v-1zM181 97h1v1h-1v-1z"/><path fill="#5F5" d="M225 97h1v1h-1v-1zM229 97h1v1h-1v-1z"/><path fill="#555" d="M257 97h1v1h-1v-1zM261 97h1v1h-1v-1zM313 97h1v1h-1v-1zM317 97h1v1h-1v-1z"/><path fill="#5FF" d="M329 97h1v1h-1v-1zM333 97h1v1h-1v-1z"/><path fill="#AAA" d="M58 98h1v1h-1v-1zM62 98h1v1h-1v-1z"/><path fill="#555" d="M83 98h1v1h-1v-1zM87 98h1v1h-1v-1z"/><path fill="#55F" d="M99 98h1v1h-1v-1zM103 98h1v1h-1v-1z"/><path fill="#F55" d="M147 98h1v1h-1v-1zM151 98h1v1h-1v-1z"/><path fill="#555" d="M179 98h1v1h-1v-1zM183 98h1v1h-1v-1z"/><path fill="#5F5" d="M227 98h1v1h-1v-1zM231 98h1v1h-1v-1z"/><path fill="#555" d="M259 98h1v1h-1v-1zM263 98h1v1h-1v-1zM315 98h1v1h-1v-1zM319 98h1v1h-1v-1z"/><path fill="#5FF" d="M331 98h1v1h-1v-1zM335 98h1v1h-1v-1z"/><path fill="#AAA" d="M56 99h1v1h-1v-1zM60 99h1v1h-1v-1z"/><path fill="#555" d="M81 99h1v1h-1v-1zM85 99h1v1h-1v-1z"/><path fill="#55F" d="M97 99h1v1h-1v-1zM101 99h1v1h-1v-1z"/><path fill="#F55" d="M145 99h1v1h-1v-1zM149 99h1v1h-1v-1z"/><path fill="#555" d="M177 99h1v1h-1v-1zM181 99h1v1h-1v-1z"/><path fill="#5F5" d="M225 99h1v1h-1v-1zM229 99h1v1h-1v-1z"/><path fill="#555" d="M257 99h1v1h-1v-1zM261 99h1v1h-1v-1zM313 99h1v1h-1v-1zM317 99h1v1h-1v-1z"/><path fill="#5FF" d="M329 99h1v1h-1v-1zM333 99h1v1h-1v-1z"/><path fill="#AAA" d="M58 100h1v1h-1v-1zM62 100h1v1h-1v-1z"/><path fill="#555" d="M83 100h1v1h-1v-1zM87 100h1v1h-1v-1z"/><path fill="#55F" d="M99 100h1v1h-1v-1zM103 100h1v1h-1v-1z"/><path fill="#F55" d="M147 100h1v1h-1v-1zM151 100h1v1h-1v-1z"/><path fill="#555" d="M179 100h1v1h-1v-1zM183 100h1v1h-1v-1z"/><path fill="#5F5" d="M227 100h1v1h-1v-1zM231 100h1v1h-1v-1z"/><path fill="#555" d="M259 100h1v1h-1v-1zM263 100h1v1h-1v-1zM315 100h1v1h-1v-1zM319 100h1v1h-1v-1z"/><path fill="#5FF" d="M331 100h1v1h-1v-1zM335 100h1v1h-1v-1z"/><path fill="#AAA" d="M56 101h1v1h-1v-1zM60 101h1v1h-1v-1z"/><path fill="#555" d="M81 101h1v1h-1v-1zM85 101h1v1h-1v-1z"/><path fill="#55F" d="M97 101h1v1h-1v-1zM101 101h1v1h-1v-1z"/><path fill="#F55" d="M145 101h1v1h-1v-1zM149 101h1v1h-1v-1z"/><path fill="#555" d="M177 101h1v1h-1v-1zM181 101h1v1h-1v-1z"/><path fill="#5F5" d="M225 101h1v1h-1v-1zM229 101h1v1h-1v-1z"/><path fill="#555" d="M257 101h1v1h-1v-1zM261 101h1v1h-1v-1zM313 101h1v1h-1v-1zM317 101h1v1h-1v-1z"/><path fill="#5FF" d="M329 101h1v1h-1v-1zM333 101h1v1h-1v-1z"/><path fill="#AAA" d="M58 102h1v1h-1v-1zM62 102h1v1h-1v-1z"/><path fill="#555" d="M83 102h1v1h-1v-1zM87 102h1v1h-1v-1z"/><path fill="#55F" d="M99 102h1v1h-1v-1zM103 102h1v1h-1v-1z"/><path fill="#F55" d="M147 102h1v1h-1v-1zM151 102h1v1h-1v-1z"/><path fill="#555" d="M179 102h1v1h-1v-1zM183 102h1v1h-1v-1z"/><path fill="#5F5" d="M227 102h1v1h-1v-1zM231 102h1v1h-1v-1z"/><path fill="#555" d="M259 102h1v1h-1v-1zM263 102h1v1h-1v-1zM315 102h1v1h-1v-1zM319 102h1v1h-1v-1z"/><path fill="#5FF" d="M331 102h1v1h-1v-1zM335 102h1v1h-1v-1z"/><path d="M40 103h8v9h-8v-9z"/><path fill="#AAA" d="M56 103h1v1h-1v-1zM60 103h1v1h-1v-1z"/><path d="M64 103h8v9h-8v-9z"/><path fill="#555" d="M72 103h8v9h-8v-9zM81 103h1v1h-1v-1zM85 103h1v1h-1v-1z"/><path d="M88 103h8v9h-8v-9z"/><path fill="#55F" d="M97 103h1v1h-1v-1zM101 103h1v1h-1v-1z"/><path d="M112 103h8v9h-8v-9z"/><path fill="#555" d="M120 103h8v9h-8v-9z"/><path d="M136 103h8v9h-8v-9z"/><path fill="#F55" d="M145 103h1v1h-1v-1zM149 103h1v1h-1v-1z"/><path d="M160 103h8v9h-8v-9z"/><path fill="#555" d="M168 103h8v9h-8v-9zM177 103h1v1h-1v-1zM181 103h1v1h-1v-1z"/><path d="M216 103h8v9h-8v-9z"/><path fill="#5F5" d="M225 103h1v1h-1v-1zM229 103h1v1h-1v-1z"/><path d="M240 103h8v9h-8v-9z"/><path fill="#555" d="M248 103h8v9h-8v-9zM257 103h1v1h-1v-1zM261 103h1v1h-1v-1zM313 103h1v1h-1v-1zM317 103h1v1h-1v-1z"/><path d="M320 103h8v9h-8v-9z"/><path fill="#5FF" d="M329 103h1v1h-1v-1zM333 103h1v1h-1v-1z"/><path d="M352 103h8v9h-8v-9z"/><path fill="#555" d="M360 103h8v9h-8v-9z"/><path fill="#AAA" d="M58 104h1v1h-1v-1zM62 104h1v1h-1v-1z"/><path fill="#555" d="M83 104h1v1h-1v-1zM87 104h1v1h-1v-1z"/><path fill="#55F" d="M99 104h1v1h-1v-1zM103 104h1v1h-1v-1z"/><path fill="#F55" d="M147 104h1v1h-1v-1zM151 104h1v1h-1v-1z"/><path fill="#555" d="M179 104h1v1h-1v-1zM183 104h1v1h-1v-1z"/><path fill="#5F5" d="M227 104h1v1h-1v-1zM231 104h1v1h-1v-1z"/><path fill="#555" d="M259 104h1v1h-1v-1zM263 104h1v1h-1v-1zM315 104h1v1h-1v-1zM319 104h1v1h-1v-1z"/><path fill="#5FF" d="M331 104h1v1h-1v-1zM335 104h1v1h-1v-1z"/><path fill="#AAA" d="M56 105h1v1h-1v-1zM60 105h1v1h-1v-1z"/><path fill="#555" d="M81 105h1v1h-1v-1zM85 105h1v1h-1v-1z"/><path fill="#55F" d="M97 105h1v1h-1v-1zM101 105h1v1h-1v-1z"/><path fill="#F55" d="M145 105h1v1h-1v-1zM149 105h1v1h-1v-1z"/><path fill="#555" d="M177 105h1v1h-1v-1zM181 105h1v1h-1v-1z"/><path fill="#5F5" d="M225 105h1v1h-1v-1zM229 105h1v1h-1v-1z"/><path fill="#555" d="M257 105h1v1h-1v-1zM261 105h1v1h-1v-1zM313 105h1v1h-1v-1zM317 105h1v1h-1v-1z"/><path fill="#5FF" d="M329 105h1v1h-1v-1zM333 105h1v1h-1v-1z"/><path fill="#AAA" d="M58 106h1v1h-1v-1zM62 106h1v1h-1v-1z"/><path fill="#555" d="M83 106h1v1h-1v-1zM87 106h1v1h-1v-1z"/><path fill="#55F" d="M99 106h1v1h-1v-1zM103 106h1v1h-1v-1z"/><path fill="#F55" d="M147 106h1v1h-1v-1zM151 106h1v1h-1v-1z"/><path fill="#555" d="M179 106h1v1h-1v-1zM183 106h1v1h-1v-1z"/><path fill="#5F5" d="M227 106h1v1h-1v-1zM231 106h1v1h-1v-1z"/><path fill="#555" d="M259 106h1v1h-1v-1zM263 106h1v1h-1v-1zM315 106h1v1h-1v-1zM319 106h1v1h-1v-1z"/><path fill="#5FF" d="M331 106h1v1h-1v-1zM335 106h1v1h-1v-1z"/><path fill="#AAA" d="M56 107h1v1h-1v-1zM60 107h1v1h-1v-1z"/><path fill="#555" d="M81 107h1v1h-1v-1zM85 107h1v1h-1v-1z"/><path fill="#55F" d="M97 107h1v1h-1v-1zM101 107h1v1h-1v-1z"/><path fill="#F55" d="M145 107h1v1h-1v-1zM149 107h1v1h-1v-1z"/><path fill="#555" d="M177 107h1v1h-1v-1zM181 107h1v1h-1v-1z"/><path fill="#5F5" d="M225 107h1v1h-1v-1zM229 107h1v1h-1v-1z"/><path fill="#555" d="M257 107h1v1h-1v-1zM261 107h1v1h-1v-1zM313 107h1v1h-1v-1zM317 107h1v1h-1v-1z"/><path fill="#5FF" d="M329 107h1v1h-1v-1zM333 107h1v1h-1v-1z"/><path fill="#AAA" d="M58 108h1v1h-1v-1zM62 108h1v1h-1v-1z"/><path fill="#555" d="M83 108h1v1h-1v-1zM87 108h1v1h-1v-1z"/><path fill="#55F" d="M99 108h1v1h-1v-1zM103 108h1v1h-1v-1z"/><path fill="#F55" d="M147 108h1v1h-1v-1zM151 108h1v1h-1v-1z"/><path fill="#555" d="M179 108h1v1h-1v-1zM183 108h1v1h-1v-1z"/><path fill="#5F5" d="M227 108h1v1h-1v-1zM231 108h1v1h-1v-1z"/><path fill="#555" d="M259 108h1v1h-1v-1zM263 108h1v1h-1v-1zM315 108h1v1h-1v-1zM319 108h1v1h-1v-1z"/><path fill="#5FF" d="M331 108h1v1h-1v-1zM335 108h1v1h-1v-1z"/><path fill="#AAA" d="M56 109h1v1h-1v-1zM60 109h1v1h-1v-1z"/><path fill="#555" d="M81 109h1v1h-1v-1zM85 109h1v1h-1v-1z"/><path fill="#55F" d="M97 109h1v1h-1v-1zM101 109h1v1h-1v-1z"/><path fill="#F55" d="M145 109h1v1h-1v-1zM149 109h1v1h-1v-1z"/><path fill="#555" d="M177 109h1v1h-1v-1zM181 109h1v1h-1v-1z"/><path fill="#5F5" d="M225 109h1v1h-1v-1zM229 109h1v1h-1v-1z"/><path fill="#555" d="M257 109h1v1h-1v-1zM261 109h1v1h-1v-1zM313 109h1v1h-1v-1zM317 109h1v1h-1v-1z"/><path fill="#5FF" d="M329 109h1v1h-1v-1zM333 109h1v1h-1v-1z"/><path fill="#AAA" d="M58 110h1v1h-1v-1zM62 110h1v1h-1v-1z"/><path fill="#555" d="M83 110h1v1h-1v-1zM87 110h1v1h-1v-1z"/><path fill="#55F" d="M99 110h1v1h-1v-1zM103 110h1v1h-1v-1z"/><path fill="#F55" d="M147 110h1v1h-1v-1zM151 110h1v1h-1v-1z"/><path fill="#555" d="M179 110h1v1h-1v-1zM183 110h1v1h-1v-1z"/><path fill="#5F5" d="M227 110h1v1h-1v-1zM231 110h1v1h-1v-1z"/><path fill="#555" d="M259 110h1v1h-1v-1zM263 110h1v1h-1v-1zM315 110h1v1h-1v-1zM319 110h1v1h-1v-1z"/><path fill="#5FF" d="M331 110h1v1h-1v-1zM335 110h1v1h-1v-1z"/><path fill="#AAA" d="M56 111h1v1h-1v-1zM60 111h1v1h-1v-1z"/><path fill="#555" d="M81 111h1v1h-1v-1zM85 111h1v1h-1v-1z"/><path fill="#55F" d="M97 111h1v1h-1v-1zM101 111h1v1h-1v-1z"/><path fill="#F55" d="M145 111h1v1h-1v-1zM149 111h1v1h-1v-1z"/><path fill="#555" d="M177 111h1v1h-1v-1zM181 111h1v1h-1v-1z"/><path fill="#5F5" d="M225 111h1v1h-1v-1zM229 111h1v1h-1v-1z"/><path fill="#555" d="M257 111h1v1h-1v-1zM261 111h1v1h-1v-1zM313 111h1v1h-1v-1zM317 111h1v1h-1v-1z"/><path fill="#5FF" d="M329 111h1v1h-1v-1zM333 111h1v1h-1v-1z"/><path d="M48 112h16v7H48v-7z"/><path fill="#555" d="M64 112h8v7h-8v-7z"/><path d="M96 112h16v7H96v-7z"/><path fill="#555" d="M112 112h8v7h-8v-7z"/><path d="M144 112h16v7h-16v-7z"/><path fill="#555" d="M160 112h8v7h-8v-7z"/><path d="M224 112h16v7h-16v-7z"/><path fill="#555" d="M240 112h8v7h-8v-7z"/><path d="M328 112h24v7h-24v-7z"/><path fill="#555" d="M352 112h8v7h-8v-7z"/></svg>
