<svg width="118.2" height="73" viewBox="0 0 118.2 73" xmlns="http://www.w3.org/2000/svg"><g id="svgGroup" stroke-linecap="round" fill-rule="evenodd" font-size="9pt" stroke="#00000000" stroke-width="0.25mm" fill="#000000" style="stroke:#00000000;stroke-width:0.25mm;fill:#000000"><path d="M 46 35.6 L 47.7 35.6 Q 50.823 35.6 52.575 36.057 A 6.214 6.214 0 0 1 53.45 36.35 Q 55.2 37.1 55.2 39.1 A 2.3 2.3 0 0 1 54.521 40.616 Q 52.77 42.582 46.5 44.6 Q 46.7 52.2 46.7 59.15 Q 46.7 64.929 45.939 68.288 A 15.246 15.246 0 0 1 45.6 69.55 Q 45.065 71.228 44.222 72.09 A 2.866 2.866 0 0 1 42.1 73 A 3.864 3.864 0 0 1 38.992 71.507 A 6.18 6.18 0 0 1 38.35 70.55 A 11.535 11.535 0 0 1 37.63 68.923 Q 36.973 67.11 36.464 64.368 A 57.405 57.405 0 0 1 36.15 62.5 Q 35.3 56.9 34.4 47.7 Q 24.2 50 19.7 51.4 A 340.735 340.735 0 0 1 17.389 57.623 Q 12.649 69.986 10.302 72.409 A 1.557 1.557 0 0 1 9.3 73 Q 7.604 73 5.027 71.173 A 24.73 24.73 0 0 1 3.75 70.2 A 13.301 13.301 0 0 1 2.085 68.612 Q 0.3 66.558 0.3 64.4 Q 0.3 62.948 3.146 56.242 A 228.75 228.75 0 0 1 4.2 53.8 A 8.738 8.738 0 0 1 2.256 52.061 A 11.518 11.518 0 0 1 1.25 50.65 Q 0.095 48.756 0.007 46.989 A 5.834 5.834 0 0 1 0 46.7 A 2.855 2.855 0 0 1 0.85 44.792 Q 2.533 42.928 7.552 41.164 A 56.739 56.739 0 0 1 9.9 40.4 A 70.093 70.093 0 0 0 10.7 38.298 Q 11.118 37.145 11.55 35.85 Q 12.4 33.3 15.85 23.9 Q 19.128 14.968 21.097 8.835 A 204.414 204.414 0 0 0 21.3 8.2 A 5.636 5.636 0 0 1 22.445 6.185 Q 23.684 4.725 26.082 3.368 A 26.599 26.599 0 0 1 27.55 2.6 Q 32.9 0 35.9 0 Q 39.03 0 41.559 7.755 A 52.107 52.107 0 0 1 42.15 9.7 Q 44.9 19.4 46 35.6 Z M 109 35.6 L 110.7 35.6 Q 113.823 35.6 115.575 36.057 A 6.214 6.214 0 0 1 116.45 36.35 Q 118.2 37.1 118.2 39.1 A 2.3 2.3 0 0 1 117.521 40.616 Q 115.77 42.582 109.5 44.6 Q 109.7 52.2 109.7 59.15 Q 109.7 64.929 108.939 68.288 A 15.246 15.246 0 0 1 108.6 69.55 Q 108.065 71.228 107.222 72.09 A 2.866 2.866 0 0 1 105.1 73 A 3.864 3.864 0 0 1 101.992 71.507 A 6.18 6.18 0 0 1 101.35 70.55 A 11.535 11.535 0 0 1 100.63 68.923 Q 99.973 67.11 99.464 64.368 A 57.405 57.405 0 0 1 99.15 62.5 Q 98.3 56.9 97.4 47.7 Q 87.2 50 82.7 51.4 A 340.735 340.735 0 0 1 80.389 57.623 Q 75.649 69.986 73.302 72.409 A 1.557 1.557 0 0 1 72.3 73 Q 70.604 73 68.027 71.173 A 24.73 24.73 0 0 1 66.75 70.2 A 13.301 13.301 0 0 1 65.085 68.612 Q 63.3 66.558 63.3 64.4 Q 63.3 62.948 66.146 56.242 A 228.75 228.75 0 0 1 67.2 53.8 A 8.738 8.738 0 0 1 65.256 52.061 A 11.518 11.518 0 0 1 64.25 50.65 Q 63.095 48.756 63.007 46.989 A 5.834 5.834 0 0 1 63 46.7 A 2.855 2.855 0 0 1 63.85 44.792 Q 65.533 42.928 70.552 41.164 A 56.739 56.739 0 0 1 72.9 40.4 A 70.093 70.093 0 0 0 73.7 38.298 Q 74.118 37.145 74.55 35.85 Q 75.4 33.3 78.85 23.9 Q 82.128 14.968 84.097 8.835 A 204.414 204.414 0 0 0 84.3 8.2 A 5.636 5.636 0 0 1 85.445 6.185 Q 86.684 4.725 89.082 3.368 A 26.599 26.599 0 0 1 90.55 2.6 Q 95.9 0 98.9 0 Q 102.03 0 104.559 7.755 A 52.107 52.107 0 0 1 105.15 9.7 Q 107.9 19.4 109 35.6 Z M 24.6 37.3 Q 27.6 36.9 33.3 36.3 Q 33.024 33.629 32.451 27.482 A 3012.636 3012.636 0 0 1 32.35 26.4 Q 31.751 19.954 31.45 16.815 A 821.764 821.764 0 0 0 31.4 16.3 Q 29.7 21.9 24.6 37.3 Z M 87.6 37.3 Q 90.6 36.9 96.3 36.3 Q 96.024 33.629 95.451 27.482 A 3012.636 3012.636 0 0 1 95.35 26.4 Q 94.751 19.954 94.45 16.815 A 821.764 821.764 0 0 0 94.4 16.3 Q 92.7 21.9 87.6 37.3 Z" vector-effect="non-scaling-stroke"/></g></svg>
